<svg width="166" height="133" viewBox="0 0 166 133" fill="none" xmlns="http://www.w3.org/2000/svg">
<g id="scribbles-scribbles-63 1">
<path id="Vector" d="M112.709 84.5295L113.667 83.9767L114.68 84.4924L114.864 83.9244L116.296 83.9075L116.881 84.636L117.26 83.99L118.671 84.9501L118.344 85.3224L118.702 85.9439C118.127 86.6034 117.942 87.539 117.007 87.7952C117.278 88.3737 116.879 88.8456 116.6 89.1013C115.939 89.7076 115.648 90.6724 114.943 91.0974C114.12 91.5943 113.752 92.4164 113.147 93.0415C112.421 93.7919 111.679 94.5748 111.009 95.4047C110.355 96.2149 109.715 97.1495 108.732 97.6759C107.717 99.4419 106.002 100.567 104.649 102.019C103.595 103.151 102.585 104.385 101.263 105.283C100.803 105.595 100.633 106.357 99.7084 105.912C99.7293 106.789 99.5136 107.404 98.7841 107.793C98.2685 108.09 97.8081 108.474 97.4232 108.928C96.4004 110.075 95.1605 110.968 94.0221 111.98C92.9775 112.908 91.8063 113.696 90.7931 114.624C89.4268 115.875 87.7477 116.521 86.2585 117.512C85.9962 117.687 85.5888 117.627 85.2785 117.751C84.9422 117.884 84.6268 118.272 84.3272 118.247C83.9391 118.215 83.8343 118.507 83.5824 118.592C83.2101 118.719 82.8266 118.813 82.3713 118.943C82.0759 118.77 81.5231 118.951 81.231 118.442C81.1573 118.315 80.7725 118.211 80.6563 118.287C79.7772 118.864 79.134 118.237 78.3761 117.833C77.5144 116.692 77.6149 115.486 78.4604 114.289C78.5669 114.127 78.6949 113.98 78.841 113.852C79.4223 113.382 80.1168 113.009 80.5777 112.444C81.0848 111.822 81.7289 111.476 82.371 111.083C82.9874 110.706 83.828 110.458 84.1549 109.906C84.5179 109.293 85.4673 109.385 85.5051 108.559C86.1875 108.761 86.2195 107.85 86.7669 107.822C86.9946 107.172 87.6776 107.056 88.11 106.656C88.5104 106.286 88.9507 105.952 89.3256 105.58C90.5677 104.375 91.8938 103.259 93.294 102.242C93.6129 101.304 94.8136 101.326 95.2189 100.427C95.5668 99.6546 96.4097 99.2727 97.0125 98.7207C97.6969 98.0945 98.4435 97.4869 99.1744 96.8892C99.8568 96.3312 100.478 95.6956 101.154 95.1176C102.15 94.2656 102.934 93.1679 104.04 92.4152C104.195 91.5612 105.247 91.614 105.574 90.8418C105.85 90.1938 106.534 89.715 107.07 89.2796C108.377 88.217 109.245 86.7801 110.47 85.6662C110.761 85.4023 111.047 85.1344 111.381 84.826C111.624 85.1285 111.806 85.3563 112.094 85.7149L112.709 84.5295Z" fill="#7800E8"/>
<path id="Vector_2" d="M81.0873 82.1929C81.0558 82.3104 81.0288 82.4112 81.0019 82.5116L79.9242 81.9624C79.9786 82.2566 80.0143 82.4458 80.0698 82.7478C79.6433 82.9286 79.1564 83.3306 78.7435 83.2653C78.0732 83.1593 78.0802 83.8615 77.6027 83.9497C77.1695 84.0297 76.7442 84.4998 76.3648 84.4466C75.7464 84.3598 75.4241 84.7943 74.9536 84.9263C74.4704 85.0346 73.9814 85.115 73.4889 85.1668L72.802 85.9154L71.7869 85.2835C71.9067 85.8123 71.9461 85.9866 72.0104 86.2706C70.3514 86.2735 69.0925 87.5416 67.4835 87.6334C67.3696 87.5095 67.271 87.4023 67.0105 87.1193C67.0863 87.5055 67.1185 87.6693 67.156 87.8601L65.9973 88.1752C65.8516 87.9766 65.7044 87.7764 65.4893 87.4833L65.2985 87.9105L64.578 87.9529L64.6531 88.6587C64.2267 88.6201 63.7996 88.5803 63.2941 88.5344C63.2065 88.4162 63.0598 88.2157 62.869 87.9562L62.1912 88.9862C61.3166 88.5714 60.1598 88.8131 59.3188 88.0617L59.4291 87.5554C59.0193 87.4456 58.9416 87.5867 59.0031 88.331C58.9217 88.392 58.836 88.4472 58.7467 88.4962C58.7089 88.5143 58.6496 88.4877 58.4829 88.4666C58.4556 88.2236 58.425 87.9526 58.3909 87.6537L57.5899 87.0102L58.578 86.835C58.3088 86.5587 58.1087 86.3532 57.7702 86.0058L59.1694 85.8669L59.0986 86.3036L60.0801 86.2521L59.5524 85.338L60.154 84.4134L62.5967 84.095C62.8283 83.805 64.0613 83.2904 64.7179 83.2262L64.8737 82.7388L66.0137 82.6487L65.9285 83.0811C66.0144 83.0908 66.155 83.1455 66.1924 83.1048C66.6169 82.6448 66.8759 81.9681 67.7441 82.1695C67.9048 82.2068 68.1672 81.8159 68.3794 81.6191C69.35 80.7189 70.4678 80.2861 71.7886 80.4908C71.9662 80.3114 72.1308 80.0624 72.3622 79.9345C72.6347 79.7842 73.2061 79.781 73.2302 79.6416C73.3551 78.9204 73.9094 79.3911 74.2143 79.2201C74.5093 79.0339 74.8423 78.9159 75.1888 78.8747C75.8561 78.8103 76.5109 78.5004 77.1455 78.2333C79.2734 77.3358 81.4771 76.6303 83.7305 76.125C85.4801 75.7328 87.211 75.2435 88.9929 75.0398C90.1933 74.9023 91.4599 74.6864 92.6058 74.9309C93.6416 75.1512 94.7622 75.2285 95.7988 75.7969C95.7919 75.9573 95.7839 76.1519 95.7737 76.3755L96.1616 76.5097L95.7037 78.048C95.216 78.1622 94.6819 78.2371 94.0936 77.7798C94.2403 78.1518 94.3469 78.4226 94.4621 78.7147L94.0751 78.9381C93.9047 78.7999 93.7551 78.6785 93.6022 78.5544L93.3093 79.1173L92.732 79.0481L92.4284 80.0316C91.8645 79.8158 91.4247 79.5848 90.957 79.4866C90.503 79.3914 90.027 80.0116 89.4873 79.4048C89.4931 79.2882 89.5027 79.0944 89.5178 78.793L88.586 79.269L89.3223 79.5134C88.9685 79.6942 88.7206 79.9232 88.467 79.9302C87.8828 79.9644 87.3047 80.0679 86.7449 80.2386C86.2215 80.3879 85.7111 80.5796 85.2187 80.8118C84.773 81.0095 84.2734 81.0843 83.826 81.2787C83.3531 81.484 82.9354 81.8295 82.4532 81.9967C82.0258 82.1448 81.5412 82.1341 81.0873 82.1929Z" fill="#7800E8"/>
<path id="Vector_3" d="M53.0632 53.2538L52.4042 52.1123C52.5851 51.3564 52.9835 50.8104 53.8368 50.4238C53.9845 50.5058 54.257 50.6575 54.5785 50.8364C55.1567 49.7661 56.1902 50.7673 56.7856 50.1699C58.185 50.2567 59.4792 50.755 60.8547 50.7408C61.0624 50.7652 61.2659 50.8171 61.4597 50.8954C62.8757 51.2646 64.3222 51.5052 65.7815 51.6141C66.7914 51.7288 67.7916 51.9167 68.7742 52.1764C69.8403 52.4577 70.9389 52.597 72.0415 52.5908C72.249 52.615 72.4523 52.6665 72.6463 52.7441C73.4516 52.9508 74.2479 53.2581 75.0649 53.3299C75.7231 53.3882 76.3213 53.6246 76.9483 53.7523C78.0316 53.9723 79.0734 54.3999 80.1293 54.751C81.1922 55.1043 82.2661 55.4324 83.304 55.8497C83.7366 56.0233 84.0886 56.3997 84.4929 56.6953L83.8719 58.5238C83.6134 58.9629 83.0035 58.3529 82.4542 58.4485L82.2465 58.9507L80.266 59.6065C78.0566 59.2462 75.5567 58.9496 73.0806 58.4303C71.8718 58.1755 70.6403 58.0442 69.405 58.0386C68.5132 58.0369 67.6212 57.6984 66.7218 57.5391C64.3389 57.1176 61.9278 56.665 59.656 55.8622C57.5231 55.1089 55.2335 54.7422 53.0632 53.2538Z" fill="#7800E8"/>
</g>
</svg>
